<svg xmlns="http://www.w3.org/2000/svg" width="65.079" height="59.727" viewBox="0 0 65.079 59.727"><path d="M0,2.25c69.379,0,53.254,42.3,53.327,48.834L65.079,61.977H61.3L51.075,52.484c-5.665.56-18.071,4.6-31.145-4.933C6.827,38.019,7.554,26.607,0,2.25ZM11.578,8.383c-7.22-3.133-.755,1.227-.755,1.227,6.566,4.16,9.587,9.826,13.1,15.985C28.5,33.62,35.4,44.219,44.872,47.951c9.442,3.733,4.968,1.666.872-1.133-4.1-2.826-9.907-11.6-13.219-17.358-4.6-8-8.861-15.812-20.947-21.078Z" transform="translate(0 -2.25)"/></svg>