<svg xmlns="http://www.w3.org/2000/svg" width="70" height="70" viewBox="0 0 70 70"><path d="M31.875,37.5H10.625A5.625,5.625,0,0,1,5,31.875V10.625A5.625,5.625,0,0,1,10.625,5h21.25A5.625,5.625,0,0,1,37.5,10.625v21.25A5.625,5.625,0,0,1,31.875,37.5Zm37.5,0H48.125A5.625,5.625,0,0,1,42.5,31.875V10.625A5.625,5.625,0,0,1,48.125,5h21.25A5.625,5.625,0,0,1,75,10.625v21.25A5.625,5.625,0,0,1,69.375,37.5ZM31.875,75H10.625A5.625,5.625,0,0,1,5,69.375V48.125A5.625,5.625,0,0,1,10.625,42.5h21.25A5.625,5.625,0,0,1,37.5,48.125v21.25A5.625,5.625,0,0,1,31.875,75Zm37.5,0H48.125A5.625,5.625,0,0,1,42.5,69.375V48.125A5.625,5.625,0,0,1,48.125,42.5h21.25A5.625,5.625,0,0,1,75,48.125v21.25A5.625,5.625,0,0,1,69.375,75Z" transform="translate(-5 -5)"/></svg>