<svg xmlns="http://www.w3.org/2000/svg" width="70" height="70" viewBox="0 0 70 70"><defs><style>.a{fill:#005bb5;}</style></defs><path class="a" d="M10,5A10.009,10.009,0,0,0,0,15V65A10.009,10.009,0,0,0,10,75H60A10.009,10.009,0,0,0,70,65V15A10.009,10.009,0,0,0,60,5ZM54.891,31.141c0,13.547-10.312,29.156-29.156,29.156A29.022,29.022,0,0,1,10,55.7a21.589,21.589,0,0,0,2.469.125,20.546,20.546,0,0,0,12.719-4.375,10.261,10.261,0,0,1-9.578-7.109,11.045,11.045,0,0,0,4.625-.187,10.249,10.249,0,0,1-8.2-10.062v-.125a10.241,10.241,0,0,0,4.625,1.3A10.284,10.284,0,0,1,13.3,31.578a10.332,10.332,0,0,1,.188-10.016A29.1,29.1,0,0,0,34.609,32.281a10.27,10.27,0,0,1,17.484-9.359,20.081,20.081,0,0,0,6.5-2.469,10.221,10.221,0,0,1-4.5,5.641A20.393,20.393,0,0,0,60,24.5a21.57,21.57,0,0,1-5.141,5.313C54.891,30.25,54.891,30.7,54.891,31.141Z" transform="translate(0 -5)"/></svg>