<svg xmlns="http://www.w3.org/2000/svg" width="16" height="18.753" viewBox="0 0 16 18.753"><defs><style>.a{fill:#005cb6;}</style></defs><path class="a" d="M15.69,4.447a1.345,1.345,0,0,0-.171-1.888,1.33,1.33,0,0,0-1.879.172L8,9.532l-5.641-6.8A1.33,1.33,0,0,0,.479,2.559,1.345,1.345,0,0,0,.308,4.447l5.954,7.178L.308,18.8a1.345,1.345,0,0,0,.171,1.888,1.33,1.33,0,0,0,1.879-.172L8,13.718l5.641,6.8a1.33,1.33,0,0,0,1.879.172A1.345,1.345,0,0,0,15.69,18.8L9.736,11.625Z" transform="translate(0.001 -2.249)"/></svg>