<svg xmlns="http://www.w3.org/2000/svg" width="56.03" height="46.154" viewBox="0 0 56.03 46.154"><path d="M60.484,24.747a2.352,2.352,0,0,0-.146-.447l-7-16.154a2.335,2.335,0,0,0-2.142-1.4H13.838a2.336,2.336,0,0,0-2.147,1.4l-7,16.154a2.352,2.352,0,0,0-.146.447,2.3,2.3,0,0,0-.042.462V51.75A1.161,1.161,0,0,0,5.667,52.9h4.669A1.161,1.161,0,0,0,11.5,51.75V48.289H53.527V51.75A1.161,1.161,0,0,0,54.694,52.9h4.669A1.161,1.161,0,0,0,60.53,51.75V25.212a2.3,2.3,0,0,0-.047-.464ZM16.173,39.058a4.616,4.616,0,1,1,4.669-4.615A4.643,4.643,0,0,1,16.173,39.058Zm32.684,0a4.616,4.616,0,1,1,4.669-4.615A4.643,4.643,0,0,1,48.857,39.058ZM10.374,22.9l5-11.539H49.653l5,11.539Z" transform="translate(-4.5 -6.75)"/></svg>