<svg xmlns="http://www.w3.org/2000/svg" width="68.435" height="70.617" viewBox="0 0 68.435 70.617"><defs><style>.a{stroke:#000;stroke-width:0.07px;}</style></defs><path class="a" d="M11.431,67.816H21.569V57.369H11.431ZM2.956,48.625v8.744h8.474V48.625ZM67.092,24.536A33.558,33.558,0,0,0,45.548,2.307C22.147-5.23.563,12.726.563,35.75H13.742c0-14.45,13.895-25.622,28.628-20.114A20.059,20.059,0,0,1,54.174,27.8c5.379,15.188-5.462,29.5-19.452,29.525v.043H34.68v13.6c22.369,0,39.73-22.257,32.412-46.431Zm-32.37,32.79V43.8H21.569v13.57H34.68v-.043Z" transform="translate(-0.527 -0.386)"/></svg>