<svg xmlns="http://www.w3.org/2000/svg" width="70.394" height="65.226" viewBox="0 0 70.394 65.226"><path d="M69.846,31.7,63.418,19.907a2.289,2.289,0,0,0,.241-.983,2.024,2.024,0,0,0-1.89-2.038L54.653,3.855a2.231,2.231,0,0,0,.137-.655,2.018,2.018,0,0,0-1.959-2.075,1.9,1.9,0,0,0-1.512.764H37.639a1.811,1.811,0,0,0-2.956,0H21.072a1.9,1.9,0,0,0-1.512-.764,2,2,0,0,0-1.822,2.73L10.554,17.068a2.039,2.039,0,0,0-1.169,1.856c0,.073.034.146.034.218L2.58,31.663A2.041,2.041,0,0,0,.964,33.7,2.078,2.078,0,0,0,2.511,35.74L9.592,48.7a2.079,2.079,0,0,0,1.444,2.657l6.634,12.193a2.473,2.473,0,0,0-.137.728,2.018,2.018,0,0,0,1.959,2.075,1.858,1.858,0,0,0,1.478-.728H34.683a1.864,1.864,0,0,0,2.956,0H51.388a1.873,1.873,0,0,0,1.409.655A2.019,2.019,0,0,0,54.756,64.2a1.586,1.586,0,0,0-.1-.582l6.634-12.266a2.006,2.006,0,0,0,1.547-2,2.17,2.17,0,0,0-.1-.655L69.777,35.74A2.046,2.046,0,0,0,71.358,33.7a2.014,2.014,0,0,0-1.513-2ZM18.906,60.2,13.3,49.9h5.6Zm0-11.393H13.3a2.311,2.311,0,0,0-.172-.437l5.774-6.442Zm0-8.481-6.462,7.243a3.11,3.11,0,0,0-.516-.218L4.78,34.247a1.494,1.494,0,0,0,.069-.546,2.033,2.033,0,0,0-.034-.473L11.482,21a2.088,2.088,0,0,0,1-.364L18.907,27.7v12.63Zm0-13.9-5.878-6.442a2.079,2.079,0,0,0,.275-1.055c0-.036-.034-.109-.034-.146l5.637-2.148v9.791Zm0-10.956-5.6,2.148,5.6-10.264Zm41.9,5.314.1.182L56.372,43.675l-8.181-9.136,12.58-13.795.034.036ZM36.642,47.205l1.478,1.6H35.2Zm-.034-1.529L25.918,34.066,36.127,22.6,46.782,34.5Zm.687.8L47.469,35.3l8.662,9.682-.756,3.822H39.461L37.3,46.477ZM51.869,4.983a1.667,1.667,0,0,0,.447.182L59.74,18.851v.073a2.078,2.078,0,0,0,.275,1.055L47.5,33.738l-10.655-11.9ZM50.7,4.692,36.127,21.035l-7.321-8.19L50.15,4.692h.55Zm-15.846,0a1.756,1.756,0,0,0,2.612,0h9.624l-19.042,7.28-6.531-7.28H34.855Zm-14.917.764.137-.291q.174-.047.344-.109l6.565,7.316-7.046,2.693Zm0,10.774,7.8-2.985,7.665,8.59L25.2,33.265,19.938,27.55V16.23Zm0,12.594,4.674,5.132-4.674,5.205V28.824Zm0,11.939,5.4-6.042L35.955,46.4l-2.2,2.4H19.938V40.763Zm.894,22.021a1.828,1.828,0,0,0-.756-.473l-.137-.218V49.9H32.758L21,62.784h-.172Zm16.67,0a1.834,1.834,0,0,0-2.681,0H22.447L34.2,49.9h4.915L50.872,62.784H37.5Zm15.4-1.6L52.35,62.2a1.671,1.671,0,0,0-.447.182L40.458,49.9H55.135L52.9,61.182Zm1.65-3.021L56.2,49.9h2.818L54.55,58.161Zm4.468-9.354H56.406l.584-2.875,2.2,2.475a1.385,1.385,0,0,0-.172.4Zm8.49-14.6-7.115,13.14a3.381,3.381,0,0,0-.516.255l-2.647-2.985,4.434-22.276,5.878,10.774a2.911,2.911,0,0,0-.1.582,2.592,2.592,0,0,0,.069.51Z" transform="translate(-0.964 -1.125)"/></svg>