<svg xmlns="http://www.w3.org/2000/svg" xmlns:xlink="http://www.w3.org/1999/xlink" width="2849.696" height="2443.438" viewBox="0 0 2849.696 2443.438"><defs><style>.a{fill:url(#a);}.b{fill:#fff;}.c{filter:url(#d);}.d{filter:url(#b);}</style><linearGradient id="a" x1="0.5" x2="0.5" y2="1" gradientUnits="objectBoundingBox"><stop offset="0" stop-color="#f5f6fb"/><stop offset="1" stop-color="#066170"/></linearGradient><filter id="b" x="0" y="0" width="2849.696" height="2443.438" filterUnits="userSpaceOnUse"><feOffset dy="3" input="SourceAlpha"/><feGaussianBlur stdDeviation="3" result="c"/><feFlood flood-opacity="0.161"/><feComposite operator="in" in2="c"/><feComposite in="SourceGraphic"/></filter><filter id="d" x="0" y="0" width="2849.696" height="2443.438" filterUnits="userSpaceOnUse"><feOffset dy="3" input="SourceAlpha"/><feGaussianBlur stdDeviation="3" result="e"/><feFlood flood-opacity="0.161" result="f"/><feComposite operator="out" in="SourceGraphic" in2="e"/><feComposite operator="in" in="f"/><feComposite operator="in" in2="SourceGraphic"/></filter></defs><g data-type="innerShadowGroup"><g class="d" transform="matrix(1, 0, 0, 1, 0, 0)"><path class="a" d="M33.527,1926.8s312.35,428.707,674.018,220.72,488.925-369.282,842.448-220.72,411.061,271.656,587.785,199.5S2487.115,292.618,2487.115,292.618l-500.4-513.6H1078.154L-303.482-199.758l-41.1,861.657,98.637,1107.845Z" transform="translate(353.58 226.98)"/></g><g class="c" transform="matrix(1, 0, 0, 1, 0, 0)"><path class="b" d="M33.527,1926.8s312.35,428.707,674.018,220.72,488.925-369.282,842.448-220.72,411.061,271.656,587.785,199.5S2487.115,292.618,2487.115,292.618l-500.4-513.6H1078.154L-303.482-199.758l-41.1,861.657,98.637,1107.845Z" transform="translate(353.58 226.98)"/></g></g></svg>