<svg xmlns="http://www.w3.org/2000/svg" xmlns:xlink="http://www.w3.org/1999/xlink" width="4005.29" height="2750.696" viewBox="0 0 4005.29 2750.696"><defs><style>.a{fill:url(#a);}.b{fill:#fff;}.c{filter:url(#d);}.d{filter:url(#b);}</style><linearGradient id="a" x1="0.5" x2="0.5" y2="1" gradientUnits="objectBoundingBox"><stop offset="0" stop-color="#f5f6fb"/><stop offset="1" stop-color="#066170"/></linearGradient><filter id="b" x="0" y="0" width="4005.29" height="2750.696" filterUnits="userSpaceOnUse"><feOffset dy="3" input="SourceAlpha"/><feGaussianBlur stdDeviation="3" result="c"/><feFlood flood-opacity="0.161"/><feComposite operator="in" in2="c"/><feComposite in="SourceGraphic"/></filter><filter id="d" x="0" y="0" width="4005.29" height="2750.696" filterUnits="userSpaceOnUse"><feOffset dy="3" input="SourceAlpha"/><feGaussianBlur stdDeviation="3" result="e"/><feFlood flood-opacity="0.161" result="f"/><feComposite operator="out" in="SourceGraphic" in2="e"/><feComposite operator="in" in="f"/><feComposite operator="in" in2="SourceGraphic"/></filter></defs><g data-type="innerShadowGroup"><g class="d" transform="matrix(1, 0, 0, 1, 0, 0)"><path class="a" d="M187.83,2198.879s439.817,483.016,949.079,248.681,688.452-416.063,1186.244-248.681,578.811,306.069,827.655,224.77,491.9-2065.967,491.9-2065.967L2938.1-220.981H1658.762L-286.71-197.069l-57.871,970.813,138.89,1248.189Z" transform="translate(353.58 226.98)"/></g><g class="c" transform="matrix(1, 0, 0, 1, 0, 0)"><path class="b" d="M187.83,2198.879s439.817,483.016,949.079,248.681,688.452-416.063,1186.244-248.681,578.811,306.069,827.655,224.77,491.9-2065.967,491.9-2065.967L2938.1-220.981H1658.762L-286.71-197.069l-57.871,970.813,138.89,1248.189Z" transform="translate(353.58 226.98)"/></g></g></svg>