<svg xmlns="http://www.w3.org/2000/svg" xmlns:xlink="http://www.w3.org/1999/xlink" width="3983.854" height="2158.201" viewBox="0 0 3983.854 2158.201"><defs><style>.a{fill:url(#a);}.b{fill:#fff;}.c{filter:url(#d);}.d{filter:url(#b);}</style><linearGradient id="a" x1="0.5" x2="0.5" y2="1" gradientUnits="objectBoundingBox"><stop offset="0" stop-color="#f5f6fb"/><stop offset="1" stop-color="#066170"/></linearGradient><filter id="b" x="0" y="0" width="3983.854" height="2158.201" filterUnits="userSpaceOnUse"><feOffset dy="3" input="SourceAlpha"/><feGaussianBlur stdDeviation="3" result="c"/><feFlood flood-opacity="0.161"/><feComposite operator="in" in2="c"/><feComposite in="SourceGraphic"/></filter><filter id="d" x="0" y="0" width="3983.854" height="2158.201" filterUnits="userSpaceOnUse"><feOffset dy="3" input="SourceAlpha"/><feGaussianBlur stdDeviation="3" result="e"/><feFlood flood-opacity="0.161" result="f"/><feComposite operator="out" in="SourceGraphic" in2="e"/><feComposite operator="in" in="f"/><feComposite operator="in" in2="SourceGraphic"/></filter></defs><g data-type="innerShadowGroup"><g class="d" transform="matrix(1, 0, 0, 1, 0, 0)"><path class="a" d="M184.967,1674.212s437.453,378.29,943.977,194.763,684.75-325.853,1179.867-194.763,575.7,239.708,823.206,176.036,489.256-1618.03,489.256-1618.03l-700.82-453.2H1647.991L-287.021-202.254l-57.56,760.324,138.143,977.56Z" transform="translate(3630.27 1925.22) rotate(180)"/></g><g class="c" transform="matrix(1, 0, 0, 1, 0, 0)"><path class="b" d="M184.967,1674.212s437.453,378.29,943.977,194.763,684.75-325.853,1179.867-194.763,575.7,239.708,823.206,176.036,489.256-1618.03,489.256-1618.03l-700.82-453.2H1647.991L-287.021-202.254l-57.56,760.324,138.143,977.56Z" transform="translate(3630.27 1925.22) rotate(180)"/></g></g></svg>