<svg xmlns="http://www.w3.org/2000/svg" xmlns:xlink="http://www.w3.org/1999/xlink" width="6314.998" height="5710.326" viewBox="0 0 6314.998 5710.326"><defs><style>.a{fill:url(#a);}.b{fill:#fff;}.c{filter:url(#d);}.d{filter:url(#b);}</style><linearGradient id="a" x1="0.5" x2="0.5" y2="1" gradientUnits="objectBoundingBox"><stop offset="0" stop-color="#f5f6fb"/><stop offset="1" stop-color="#066170"/></linearGradient><filter id="b" x="0" y="0" width="6314.998" height="5710.326" filterUnits="userSpaceOnUse"><feOffset dy="3" input="SourceAlpha"/><feGaussianBlur stdDeviation="3" result="c"/><feFlood flood-opacity="0.161"/><feComposite operator="in" in2="c"/><feComposite in="SourceGraphic"/></filter><filter id="d" x="0" y="0" width="6314.998" height="5710.326" filterUnits="userSpaceOnUse"><feOffset dy="3" input="SourceAlpha"/><feGaussianBlur stdDeviation="3" result="e"/><feFlood flood-opacity="0.161" result="f"/><feComposite operator="out" in="SourceGraphic" in2="e"/><feComposite operator="in" in="f"/><feComposite operator="in" in2="SourceGraphic"/></filter></defs><g data-type="innerShadowGroup"><g class="d" transform="matrix(1, 0, 0, 1, 0, 0)"><path class="a" d="M496.238,4819.693s694.589,1006.143,1498.85,518.015,1087.25-866.678,1873.4-518.015,914.1,637.556,1307.089,468.205S5952.417,984.4,5952.417,984.4L4839.653-220.981H2819.232l-3072.42,49.809-91.393,2022.247,219.344,2600.032Z" transform="translate(5961.42 5477.34) rotate(180)"/></g><g class="c" transform="matrix(1, 0, 0, 1, 0, 0)"><path class="b" d="M496.238,4819.693s694.589,1006.143,1498.85,518.015,1087.25-866.678,1873.4-518.015,914.1,637.556,1307.089,468.205S5952.417,984.4,5952.417,984.4L4839.653-220.981H2819.232l-3072.42,49.809-91.393,2022.247,219.344,2600.032Z" transform="translate(5961.42 5477.34) rotate(180)"/></g></g></svg>