<svg xmlns="http://www.w3.org/2000/svg" xmlns:xlink="http://www.w3.org/1999/xlink" width="2751.358" height="2120.55" viewBox="0 0 2751.358 2120.55"><defs><style>.a{fill:url(#a);}.b{fill:#fff;}.c{filter:url(#d);}.d{filter:url(#b);}</style><linearGradient id="a" x1="0.5" x2="0.5" y2="1" gradientUnits="objectBoundingBox"><stop offset="0" stop-color="#f5f6fb"/><stop offset="1" stop-color="#066170"/></linearGradient><filter id="b" x="0" y="0" width="2751.358" height="2120.55" filterUnits="userSpaceOnUse"><feOffset dy="3" input="SourceAlpha"/><feGaussianBlur stdDeviation="3" result="c"/><feFlood flood-opacity="0.161"/><feComposite operator="in" in2="c"/><feComposite in="SourceGraphic"/></filter><filter id="d" x="0" y="0" width="2751.358" height="2120.55" filterUnits="userSpaceOnUse"><feOffset dy="3" input="SourceAlpha"/><feGaussianBlur stdDeviation="3" result="e"/><feFlood flood-opacity="0.161" result="f"/><feComposite operator="out" in="SourceGraphic" in2="e"/><feComposite operator="in" in="f"/><feComposite operator="in" in2="SourceGraphic"/></filter></defs><g data-type="innerShadowGroup"><g class="d" transform="matrix(1, 0, 0, 1, 0, 0)"><path class="a" d="M20.4,1640.872s301.5,371.635,650.611,191.337,471.946-320.121,813.191-191.337,396.785,235.491,567.372,172.939S2388.777,224.245,2388.777,224.245L1905.756-220.981h-877.01l-1333.655,18.4-39.671,746.949,95.211,960.363Z" transform="translate(353.58 226.98)"/></g><g class="c" transform="matrix(1, 0, 0, 1, 0, 0)"><path class="b" d="M20.4,1640.872s301.5,371.635,650.611,191.337,471.946-320.121,813.191-191.337,396.785,235.491,567.372,172.939S2388.777,224.245,2388.777,224.245L1905.756-220.981h-877.01l-1333.655,18.4-39.671,746.949,95.211,960.363Z" transform="translate(353.58 226.98)"/></g></g></svg>