<svg xmlns="http://www.w3.org/2000/svg" xmlns:xlink="http://www.w3.org/1999/xlink" width="2598.609" height="2439.542" viewBox="0 0 2598.609 2439.542"><defs><style>.a{fill:url(#a);}.b{fill:#fff;}.c{filter:url(#d);}.d{filter:url(#b);}</style><linearGradient id="a" x1="0.5" x2="0.5" y2="1" gradientUnits="objectBoundingBox"><stop offset="0" stop-color="#f5f6fb"/><stop offset="1" stop-color="#066170"/></linearGradient><filter id="b" x="0" y="0" width="2598.609" height="2439.542" filterUnits="userSpaceOnUse"><feOffset dy="3" input="SourceAlpha"/><feGaussianBlur stdDeviation="3" result="c"/><feFlood flood-opacity="0.161"/><feComposite operator="in" in2="c"/><feComposite in="SourceGraphic"/></filter><filter id="d" x="0" y="0" width="2598.609" height="2439.542" filterUnits="userSpaceOnUse"><feOffset dy="3" input="SourceAlpha"/><feGaussianBlur stdDeviation="3" result="e"/><feFlood flood-opacity="0.161" result="f"/><feComposite operator="out" in="SourceGraphic" in2="e"/><feComposite operator="in" in="f"/><feComposite operator="in" in2="SourceGraphic"/></filter></defs><g data-type="innerShadowGroup"><g class="d" transform="matrix(1, 0, 0, 1, 0, 0)"><path class="a" d="M0,1923.346s284.654,428.018,614.252,220.366S1059.824,1775.023,1382,1923.346s374.612,271.219,535.666,199.177,318.363-1830.73,318.363-1830.73L1780-220.981H952L-307.126-199.792l-37.454,860.273,89.891,1106.066Z" transform="translate(353.58 226.98)"/></g><g class="c" transform="matrix(1, 0, 0, 1, 0, 0)"><path class="b" d="M0,1923.346s284.654,428.018,614.252,220.366S1059.824,1775.023,1382,1923.346s374.612,271.219,535.666,199.177,318.363-1830.73,318.363-1830.73L1780-220.981H952L-307.126-199.792l-37.454,860.273,89.891,1106.066Z" transform="translate(353.58 226.98)"/></g></g></svg>