<svg xmlns="http://www.w3.org/2000/svg" xmlns:xlink="http://www.w3.org/1999/xlink" width="6636.105" height="8564.611" viewBox="0 0 6636.105 8564.611"><defs><style>.a{fill:url(#a);}.b{fill:#fff;}.c{filter:url(#d);}.d{filter:url(#b);}</style><linearGradient id="a" x1="0.5" x2="0.5" y2="1" gradientUnits="objectBoundingBox"><stop offset="0" stop-color="#f5f6fb"/><stop offset="1" stop-color="#066170"/></linearGradient><filter id="b" x="0" y="0" width="6636.105" height="8564.611" filterUnits="userSpaceOnUse"><feOffset dy="3" input="SourceAlpha"/><feGaussianBlur stdDeviation="3" result="c"/><feFlood flood-opacity="0.161"/><feComposite operator="in" in2="c"/><feComposite in="SourceGraphic"/></filter><filter id="d" x="0" y="0" width="6636.105" height="8564.611" filterUnits="userSpaceOnUse"><feOffset dy="3" input="SourceAlpha"/><feGaussianBlur stdDeviation="3" result="e"/><feFlood flood-opacity="0.161" result="f"/><feComposite operator="out" in="SourceGraphic" in2="e"/><feComposite operator="in" in="f"/><feComposite operator="in" in2="SourceGraphic"/></filter></defs><g data-type="innerShadowGroup"><g class="d" transform="matrix(1, 0, 0, 1, 0, 0)"><path class="a" d="M539.114,7347.223s730.009,1510.65,1575.282,777.761,1142.692-1301.253,1968.928-777.761,960.711,957.244,1373.743,702.976,816.457-6461.392,816.457-6461.392L5104.016-220.981H2980.567L-248.527-146.2l-96.054,3036.256,230.529,3903.758Z" transform="translate(6282.52 8331.63) rotate(180)"/></g><g class="c" transform="matrix(1, 0, 0, 1, 0, 0)"><path class="b" d="M539.114,7347.223s730.009,1510.65,1575.282,777.761,1142.692-1301.253,1968.928-777.761,960.711,957.244,1373.743,702.976,816.457-6461.392,816.457-6461.392L5104.016-220.981H2980.567L-248.527-146.2l-96.054,3036.256,230.529,3903.758Z" transform="translate(6282.52 8331.63) rotate(180)"/></g></g></svg>